#!OML:ASF H:\Terrain\Patient Classification 1\Animal2\Wednesday\Animal2.ASF
:FULLY-SPECIFIED
:DEGREES
3683
root 17.1507 16.2166 -9.5118 -5.23617 -65.662 3.34595
lowerback -0.29705 -10.3048 -9.19902
upperback -5.26091 -13.9871 2.06459
thorax -2.70598 -6.70101 7.10256
lowerneck 1.06562 -5.70213 11.966
upperneck -3.58343 -8.54027 -19.6698
head -2.6132 -4.19663 -7.75953
rclavicle 1.59028e-015 6.36111e-015
rhumerus -39.6912 -12.7055 -73.2384
rradius 121.274
rwrist -28.6405
rhand -37.2633 -0.092715
rfingers 7.12502
rthumb -10.3286 -29.8191
lclavicle 1.59028e-015 6.36111e-015
lhumerus -55.8223 6.46986 81.6492
lradius 129.488
lwrist 63.3574
lhand -20.7963 46.2766
lfingers 7.12502
lthumb 5.571 -643.817
rfemur -32.6652 24.1411 -3.80554
rtibia 42.4807
rfoot -26.1277 27.2008
rtoes -11.8377
lfemur 10.6797 18.8831 -3.90438
ltibia 34.6845
lfoot -30.8327 21.4169
ltoes -22.0604
3684
root 17.1527 16.2193 -9.49961 -4.98569 -65.3249 3.10527
lowerback -0.26087 -10.1581 -9.00312
upperback -5.26674 -13.792 2.03847
thorax -2.81567 -6.603 7.00207
lowerneck 1.03852 -5.77272 12.082
upperneck -3.4566 -8.62004 -19.7428
head -2.5943 -4.24017 -7.79985
rclavicle 1.29309e-013 -7.15625e-015
rhumerus -39.8258 -12.581 -73.1442
rradius 121.312
rwrist -28.4651
rhand -36.688 0.158888
rfingers 7.12502
rthumb -9.77364 -29.5943
lclavicle 1.29309e-013 -7.15625e-015
lhumerus -56.3446 6.07872 81.5383
lradius 129.291
lwrist 62.6339
lhand -20.2623 46.6837
lfingers 7.12502
lthumb 6.08657 -643.424
rfemur -32.4533 23.9854 -3.73338
rtibia 42.3832
rfoot -25.735 27.3573
rtoes -10.5435
lfemur 10.5113 18.7926 -3.79411
ltibia 34.7483
lfoot -30.8155 21.2028
ltoes -21.9966
3685
root 17.1512 16.2267 -9.48839 -4.71774 -65.114 2.87323
lowerback -0.296411 -10.1628 -8.90677
upperback -5.24871 -13.7861 2.23697
thorax -2.74957 -6.6062 7.14405
lowerneck 0.853011 -5.60497 11.8724
upperneck -3.39485 -8.41935 -19.8864
head -2.50812 -4.15204 -7.82982
rclavicle -1.38354e-013 -9.54166e-015
rhumerus -39.5367 -11.8821 -73.1381
rradius 121.36
rwrist -28.1122
rhand -36.0126 0.139969
rfingers 7.12502
rthumb -9.12196 -29.6428
lclavicle -1.38354e-013 -9.54166e-015
lhumerus -56.7887 6.56276 81.39
lradius 129.187
lwrist 62.0418
lhand -20.1988 47.0288
lfingers 7.12502
lthumb 6.14792 -643.08
rfemur -32.3131 23.9165 -3.66386
rtibia 42.2967
rfoot -25.391 27.6009
rtoes -9.47221
lfemur 10.4016 18.832 -3.65739
ltibia 34.7633
lfoot -30.7682 21.0643
ltoes -22.8744
3686
root 17.1491 16.2288 -9.47758 -4.44401 -64.9369 2.65519
lowerback -0.431853 -10.1219 -8.76338
upperback -5.17631 -13.7078 2.35666
thorax -2.61287 -6.5807 7.16131
lowerneck 0.801332 -5.51482 11.7091
upperneck -3.51401 -8.32596 -19.8949
head -2.5107 -4.10486 -7.81133
rclavicle -1.87653e-013 -3.97569e-015
rhumerus -39.2988 -11.4519 -73.1895
rradius 121.347
rwrist -27.6766
rhand -35.0545 0.613101
rfingers 7.12502
rthumb -8.19741 -29.2079
lclavicle -1.87653e-013 -3.97569e-015
lhumerus -57.1469 6.70497 81.3649
lradius 129.199
lwrist 62.3168
lhand -21.0807 47.109
lfingers 7.12502
lthumb 5.29646 -642.977
rfemur -32.2174 23.8719 -3.60868
rtibia 42.2139
rfoot -25.4291 27.4763
rtoes -9.7642
lfemur 10.3315 18.9106 -3.51921
ltibia 34.7378
lfoot -30.8404 20.7873
ltoes -23.7115
3687
root 17.1495 16.2289 -9.46676 -4.48924 -64.7286 2.73525
lowerback -0.459165 -10.0009 -8.74563
upperback -5.12034 -13.5404 2.32606
thorax -2.57934 -6.50062 7.1214
lowerneck 1.06068 -5.57282 12.1154
upperneck -3.88471 -8.45437 -20.1932
head -2.71442 -4.14627 -7.96481
rclavicle 2.04748e-014 -4.77083e-015
rhumerus -39.2901 -11.4884 -73.171
rradius 121.255
rwrist -27.2109
rhand -33.7712 1.35479
rfingers 7.12502
rthumb -6.95871 -28.5108
lclavicle 2.04748e-014 -4.77083e-015
lhumerus -57.522 6.411 81.3274
lradius 129.262
lwrist 62.4761
lhand -21.317 47.0046
lfingers 7.12502
lthumb 5.06831 -643.076
rfemur -32.0726 23.7667 -3.67648
rtibia 42.1411
rfoot -25.5812 27.1454
rtoes -10.6663
lfemur 10.2811 18.8406 -3.58345
ltibia 34.7068
lfoot -31.0091 20.4859
ltoes -23.5288
3688
root 17.1519 16.232 -9.45671 -4.79677 -64.6435 3.11171
lowerback -0.44692 -9.89517 -8.80499
upperback -5.10324 -13.4024 2.24141
thorax -2.60039 -6.42921 7.07647
lowerneck 1.36737 -5.54159 12.6876
upperneck -4.22883 -8.45861 -20.647
head -2.91288 -4.12548 -8.20819
rclavicle 1.47101e-014 3.18055e-015
rhumerus -39.1118 -11.3306 -73.1392
rradius 121.073
rwrist -27.0215
rhand -32.4997 2.15729
rfingers 7.12502
rthumb -5.73121 -27.7452
lclavicle 1.47101e-014 3.18055e-015
lhumerus -58.0147 6.1473 81.027
lradius 129.471
lwrist 62.3499
lhand -20.5058 47.5144
lfingers 7.12502
lthumb 5.85152 -642.586
rfemur -32.0291 23.6875 -3.89155
rtibia 42.0961
rfoot -25.7654 26.7592
rtoes -11.7123
lfemur 10.2371 18.8635 -3.79831
ltibia 34.679
lfoot -30.9359 20.4328
ltoes -23.6432
3689
root 17.1556 16.2359 -9.44663 -4.881 -64.5903 3.22141
lowerback -0.382354 -9.76608 -8.73765
upperback -5.12375 -13.2387 2.15395
thorax -2.72163 -6.34225 6.98176
lowerneck 1.52822 -5.55929 12.8992
upperneck -4.17835 -8.45097 -20.6936
head -2.93699 -4.11462 -8.25688
rclavicle -3.06128e-014 -5.56597e-015
rhumerus -39.1166 -11.1412 -73.0832
rradius 120.983
rwrist -26.8874
rhand -31.3948 2.55301
rfingers 7.12502
rthumb -4.66437 -27.3756
lclavicle -3.06128e-014 -5.56597e-015
lhumerus -58.6511 5.6376 80.6365
lradius 129.756
lwrist 62.1716
lhand -21.4957 46.9609
lfingers 7.12502
lthumb 4.89568 -643.116
rfemur -32.0165 23.6705 -3.96454
rtibia 42.0855
rfoot -26.0432 26.3592
rtoes -12.6971
lfemur 10.2367 19.0139 -3.80972
ltibia 34.6463
lfoot -30.7934 20.302
ltoes -23.8796
3690
root 17.1593 16.2406 -9.43315 -4.89813 -64.4541 3.2651
lowerback -0.322538 -9.65378 -8.64368
upperback -5.13203 -13.0955 2.06299
thorax -2.82912 -6.26769 6.86531
lowerneck 1.57472 -5.67639 12.675
upperneck -4.00915 -8.53312 -20.1664
head -2.87701 -4.15547 -8.03278
rclavicle -5.93372e-014 -3.49861e-014
rhumerus -39.3372 -11.1348 -73.1317
rradius 120.925
rwrist -26.518
rhand -30.4304 3.01013
rfingers 7.12502
rthumb -3.7331 -26.9369
lclavicle -5.93372e-014 -3.49861e-014
lhumerus -59.1372 5.2516 80.2712
lradius 129.994
lwrist 61.9069
lhand -21.8276 47.4151
lfingers 7.12502
lthumb 4.5752 -642.654
rfemur -31.9637 23.5732 -4.013
rtibia 42.1042
rfoot -26.5618 25.9222
rtoes -14.4941
lfemur 10.2249 19.1745 -3.76582
ltibia 34.6133
lfoot -30.6594 20.1454
ltoes -23.932
3691
root 17.164 16.2414 -9.41816 -4.98773 -64.2699 3.42028
lowerback -0.248617 -9.62113 -8.59504
upperback -5.12959 -13.0577 2.05903
thorax -2.88489 -6.247 6.85337
lowerneck 1.77446 -5.63241 13.4351
upperneck -4.296 -8.54383 -20.9523
head -3.06654 -4.14616 -8.42583
rclavicle 8.7664e-014 2.46493e-014
rhumerus -39.3267 -10.972 -73.2713
rradius 120.791
rwrist -25.9916
rhand -29.4296 3.60744
rfingers 7.12502
rthumb -2.76663 -26.3544
lclavicle 8.7664e-014 2.46493e-014
lhumerus -59.3297 5.39606 79.9344
lradius 130.169
lwrist 61.5942
lhand -22.246 47.7028
lfingers 7.12502
lthumb 4.17126 -642.358
rfemur -31.898 23.442 -4.14856
rtibia 42.1315
rfoot -26.9195 25.6568
rtoes -15.7604
lfemur 10.1579 19.3296 -3.78043
ltibia 34.6115
lfoot -30.4443 20.0219
ltoes -24.4471
3692
root 17.1695 16.2414 -9.40339 -4.85071 -64.1001 3.36754
lowerback -0.215168 -9.57853 -8.47896
upperback -5.1141 -12.998 2.14835
thorax -2.90005 -6.21963 6.89314
lowerneck 1.68761 -5.63066 13.6796
upperneck -4.33531 -8.5953 -21.4005
head -3.10418 -4.17635 -8.6214
rclavicle -2.90226e-014 -7.95139e-015
rhumerus -39.1422 -10.732 -73.2878
rradius 120.658
rwrist -25.5692
rhand -28.384 4.05547
rfingers 7.12502
rthumb -1.75678 -25.917
lclavicle -2.90226e-014 -7.95139e-015
lhumerus -59.3472 5.7201 79.6805
lradius 130.299
lwrist 60.965
lhand -22.4424 47.4855
lfingers 7.12502
lthumb 3.98155 -642.572
rfemur -31.869 23.454 -4.23113
rtibia 42.1257
rfoot -27.2152 25.2137
rtoes -15.9792
lfemur 9.99711 19.3801 -3.77517
ltibia 34.6675
lfoot -30.437 19.815
ltoes -24.6165
3693
root 17.1775 16.2445 -9.38357 -4.5972 -63.922 3.2225
lowerback -0.240097 -9.54345 -8.28175
upperback -5.10518 -12.9416 2.24353
thorax -2.90426 -6.19716 6.88697
lowerneck 1.60508 -5.6513 13.648
upperneck -4.36364 -8.65145 -21.501
head -3.11152 -4.20769 -8.64868
rclavicle 1.16885e-013 2.38542e-014
rhumerus -38.9927 -10.5128 -73.15
rradius 120.507
rwrist -25.2896
rhand -27.3286 4.53907
rfingers 7.12502
rthumb -0.737483 -25.4394
lclavicle 1.16885e-013 2.38542e-014
lhumerus -59.3664 6.07549 79.4366
lradius 130.495
lwrist 60.2992
lhand -22.1155 47.3137
lfingers 7.12502
lthumb 4.29725 -642.75
rfemur -31.8617 23.412 -4.29142
rtibia 42.0832
rfoot -27.5855 24.7408
rtoes -16.6253
lfemur 9.72069 19.2364 -3.8795
ltibia 34.7677
lfoot -30.6549 19.6607
ltoes -24.0815
3694
root 17.187 16.248 -9.36342 -4.31343 -63.7127 3.06467
lowerback -0.258304 -9.58584 -8.01678
upperback -5.14509 -12.9911 2.32365
thorax -2.96324 -6.22611 6.83216
lowerneck 1.78572 -5.57116 13.3946
upperneck -4.59669 -8.55026 -21.2879
head -3.16934 -4.14033 -8.53343
rclavicle -1.46107e-013 -4.05521e-014
rhumerus -38.9297 -10.2276 -73.1179
rradius 120.341
rwrist -25.0467
rhand -26.2197 4.97797
rfingers 7.12502
rthumb 0.333514 -25.0015
lclavicle -1.46107e-013 -4.05521e-014
lhumerus -59.455 6.57455 78.9987
lradius 130.859
lwrist 59.8628
lhand -21.7855 47.6721
lfingers 7.12502
lthumb 4.61589 -642.398
rfemur -31.8632 23.1896 -4.31118
rtibia 42.0316
rfoot -28.0818 24.0347
rtoes -18.8501
lfemur 9.38902 19.0752 -3.99497
ltibia 34.8916
lfoot -30.7776 19.5681
ltoes -23.6443
3695
root 17.1922 16.2509 -9.35241 -4.34042 -63.5474 3.2433
lowerback -0.278622 -9.59423 -8.01288
upperback -5.19191 -13.0023 2.36685
thorax -2.99054 -6.22925 6.87502
lowerneck 1.8923 -5.51092 13.1297
upperneck -4.67637 -8.45919 -21.0737
head -3.17239 -4.08583 -8.41686
rclavicle -1.06151e-013 -1.59028e-014
rhumerus -38.9604 -9.98027 -73.1336
rradius 120.194
rwrist -25.0076
rhand -25.2863 5.44866
rfingers 7.12502
rthumb 1.23502 -24.5275
lclavicle -1.06151e-013 -1.59028e-014
lhumerus -59.469 7.032 78.5944
lradius 131.24
lwrist 59.2865
lhand -21.7254 48.1007
lfingers 7.12502
lthumb 4.67391 -641.971
rfemur -31.9205 23.029 -4.46654
rtibia 42.0259
rfoot -28.4819 23.2869
rtoes -20.8662
lfemur 9.10939 19.0636 -4.17257
ltibia 35.0365
lfoot -30.6942 19.5228
ltoes -23.5388
3696
root 17.1936 16.2499 -9.34609 -4.59761 -63.4223 3.61955
lowerback -0.280949 -9.52047 -8.21858
upperback -5.18552 -12.9086 2.34101
thorax -2.96279 -6.17732 6.95757
lowerneck 1.82163 -5.55908 13.2742
upperneck -4.52339 -8.5116 -21.1887
head -3.13774 -4.11991 -8.47946
rclavicle 3.61788e-014 4.77083e-015
rhumerus -39.092 -9.91414 -73.0715
rradius 120.069
rwrist -24.907
rhand -24.481 5.80039
rfingers 7.12502
rthumb 2.01285 -24.1699
lclavicle 3.61788e-014 4.77083e-015
lhumerus -59.3455 7.22382 78.3146
lradius 131.529
lwrist 58.5933
lhand -21.4785 48.1382
lfingers 7.12502
lthumb 4.91234 -641.939
rfemur -31.9711 22.9889 -4.69292
rtibia 42.0827
rfoot -28.8434 22.6909
rtoes -22.4945
lfemur 8.92958 19.2106 -4.31263
ltibia 35.2149
lfoot -30.6546 19.385
ltoes -23.7558
3697
root 17.1935 16.2433 -9.33858 -4.52835 -63.3337 3.66926
lowerback -0.317009 -9.46513 -8.23125
upperback -5.17349 -12.8325 2.29322
thorax -2.95143 -6.14015 6.91197
lowerneck 1.82 -5.63809 13.6344
upperneck -4.46594 -8.61359 -21.3896
head -3.16568 -4.17361 -8.60478
rclavicle 3.08116e-014 -1.59028e-015
rhumerus -39.2935 -9.88524 -73.1866
rradius 120.011
rwrist -24.5769
rhand -23.8203 6.17784
rfingers 7.12502
rthumb 2.65095 -23.7854
lclavicle 3.08116e-014 -1.59028e-015
lhumerus -59.161 7.3269 77.8175
lradius 131.824
lwrist 58.0886
lhand -21.0422 48.1093
lfingers 7.12502
lthumb 5.33359 -641.978
rfemur -32.0843 23.0409 -4.78092
rtibia 42.1921
rfoot -29.1958 21.8424
rtoes -24.363
lfemur 8.76217 19.6064 -4.16564
ltibia 35.4278
lfoot -30.6831 19.1061
ltoes -24.6558
